REM MD5 3262f80920073a6533ed7cf17fa67af0
FILE "Densha de Go! 2 (Japan) (Demo 2).bin" BINARY
  TRACK 01 MODE2/2352
    INDEX 01 00:00:00
  TRACK 02 AUDIO
    INDEX 00 57:46:58
    INDEX 01 57:48:58
  TRACK 03 AUDIO
    INDEX 00 58:11:25
    INDEX 01 58:13:25
  TRACK 04 AUDIO
    INDEX 00 60:30:07
    INDEX 01 60:32:07
REM LEADOUT 62:56:04
